<?xml version="1.0" standalone="no"?>
<!DOCTYPE svg PUBLIC "-//W3C//DTD SVG 20010904//EN"
 "http://www.w3.org/TR/2001/REC-SVG-20010904/DTD/svg10.dtd">
<svg version="1.0" xmlns="http://www.w3.org/2000/svg"
 width="64.000000pt" height="64.000000pt" viewBox="0 0 64.000000 64.000000"
 preserveAspectRatio="xMidYMid meet">

<g transform="translate(0.000000,64.000000) scale(0.100000,-0.100000)"
fill="#000000" stroke="none">
<path d="M352 568 c-6 -6 -27 -17 -44 -22 -35 -12 -79 -77 -57 -85 6 -2 20
-12 30 -22 25 -25 54 -24 79 1 11 11 33 20 51 20 30 0 31 1 25 33 -7 37 -37
81 -57 85 -8 1 -20 -3 -27 -10z m-7 -88 c0 -18 -6 -26 -23 -28 -13 -2 -25 3
-28 12 -10 26 4 48 28 44 17 -2 23 -10 23 -28z"/>
<path d="M133 345 c-36 -16 -60 -47 -69 -93 -6 -31 -5 -32 25 -32 18 0 40 -9
51 -20 25 -25 55 -25 80 0 11 11 33 20 51 20 30 0 31 1 25 32 -9 47 -33 78
-71 94 -42 17 -51 17 -92 -1z m72 -105 c0 -18 -6 -26 -23 -28 -24 -4 -38 18
-28 44 3 9 15 14 28 12 17 -2 23 -10 23 -28z"/>
<path d="M413 345 c-36 -16 -60 -47 -69 -93 -6 -31 -5 -32 25 -32 18 0 40 -9
51 -20 25 -25 55 -25 80 0 11 11 33 20 51 20 30 0 31 1 25 32 -9 47 -33 78
-71 94 -42 17 -51 17 -92 -1z m72 -105 c0 -18 -6 -26 -23 -28 -13 -2 -25 3
-28 12 -10 26 4 48 28 44 17 -2 23 -10 23 -28z"/>
</g>
</svg>
